<svg xmlns="http://www.w3.org/2000/svg" viewBox="0 0 1801.23 676.86"><defs><style>.cls-1{fill:#4b2059;}.cls-2{fill:#fff;}</style></defs><title>Asset 4</title><g id="Layer_2" data-name="Layer 2"><g id="Layer_1-2" data-name="Layer 1"><rect class="cls-1" width="1801.23" height="676.86" rx="129.98"/><path class="cls-2" d="M877.14,460.1q-28.47-13.77-43.69-38.8t-15.23-57.65q0-43.14,19.76-77.78t55.66-54.57q35.9-19.94,82.31-20,34.08,0,60.2,11.61t39.52,33.36l-42.42,34.81Q1012.93,261.4,972,261.39q-27.91,0-49.31,13.06A89.42,89.42,0,0,0,889.47,310q-11.79,22.5-11.78,50,0,29.37,18.67,46.6t52.4,17.22q40.25,0,67.44-29.37L1051,430q-37.71,43.88-107.33,43.87Q905.61,473.88,877.14,460.1Z"/><path class="cls-2" d="M1136.22,460.1q-27.93-13.77-42.79-38.8t-14.86-57.65q0-43.14,19.76-77.78t55.48-54.57q35.7-19.94,81.77-20,38.07,0,66,13.78t42.79,38.8q14.87,25,14.86,57.66,0,43.16-19.76,77.78T1284,453.94q-35.71,19.95-81.76,19.94Q1164.13,473.88,1136.22,460.1Zm120-49.67a89,89,0,0,0,32.28-35.9q11.24-22.48,11.24-49.68,0-29-18.13-46.23t-51.13-17.23q-27.93,0-49,13.42a89,89,0,0,0-32.28,35.9Q1138,333.2,1138,360.39q0,29,18.13,46.23t51.13,17.22Q1235.21,423.84,1256.24,410.43Z"/><path class="cls-2" d="M1427.39,215.71h106.25q38.79,0,66.9,12.87t43.15,36.8q15,23.94,15,56.21,0,44.24-20,77.78t-55.66,51.85q-35.72,18.31-82.49,18.31h-124Zm75.06,205.59q29.73,0,51.67-12.5a84.45,84.45,0,0,0,33.54-34.45q11.61-21.94,11.61-49.5,0-28.64-18.49-44.78t-53.67-16.14h-50.4L1445.16,421.3Z"/><path class="cls-2" d="M647.72,475.94l-.12-.3c-9.2-21.54-30.79-29.5-56.33-20.77L521.6,474.13c-4-12.19-14.08-22.57-28.28-27.85l-.27-.09-76.58-26c-6.37-8.24-26.34-29.32-63.72-29.32-26.13,0-49.24,17.92-62.46,37.45H197.73a10,10,0,0,0-10,10V564.41a10,10,0,0,0,10,10h59.46a10,10,0,0,0,10-10v-8.63h27.88a10,10,0,0,0,10-10V542.9c16.25,1.42,21.6,4.5,36.53,13.11a606,606,0,0,0,60.07,30.67l.44.19a89.79,89.79,0,0,0,32.18,6.06,79.66,79.66,0,0,0,33.13-7.09l154-55.14.81-.33C636.93,523.6,658.86,504.52,647.72,475.94ZM247.19,554.41H207.73V448.33h39.46Zm37.88-18.63H267.19V448.33h17.88ZM614.23,512,460.3,567.14l-.45.17-.4.18c-21.44,9.85-41.81,4-49.8.85a578.41,578.41,0,0,1-58.06-29.66c-16.37-9.44-24.25-14-46.52-15.82V442.32c9.48-15.54,27.86-31.44,47.68-31.44,34,0,48.39,22.1,48.95,23a10,10,0,0,0,5.31,4.24l79.47,27c12.69,4.76,19.4,15.63,16.32,26.47A19.49,19.49,0,0,1,478.86,505l-89.59-28.39a10,10,0,1,0-6,19.07L473,524.12l.29.08A39.47,39.47,0,0,0,522,497c.23-.81.43-1.62.61-2.43l75.08-20.8c10.84-3.7,25.08-5,31.42,9.56C635.71,500.49,618.66,509.92,614.23,512Z"/><path class="cls-2" d="M689.73,114.85H630.27a10,10,0,0,0-10,10v8.63H592.39a10,10,0,0,0-10,10v2.88c-16.25-1.42-21.6-4.5-36.53-13.11a603.08,603.08,0,0,0-60.08-30.67l-.44-.19c-10.17-4-36.82-11.88-65.29,1l-40.24,14.41L345.89,83.91a10,10,0,0,0-14.15,0L220.39,195.26a9.91,9.91,0,0,0,0,14.15L410.67,399.69c3.05,3.05,10.18,4,14.15,0L526.48,298c2.64.23,5.39.35,8.23.35,26.13,0,49.24-17.92,62.46-37.45h92.56a10,10,0,0,0,10-10V124.85A10,10,0,0,0,689.73,114.85Zm-350.92-9.73,22.8,22.79a43.62,43.62,0,0,1-45.59,0Zm-74.42,120L241.6,202.34l22.79-22.8a43.62,43.62,0,0,1,0,45.59ZM417.75,378.48,395,355.69a43.56,43.56,0,0,1,45.57,0Zm37.19-37.19a63.55,63.55,0,0,0-74.39,0L278.8,239.53a63.56,63.56,0,0,0,0-74.39l22.82-22.82a63.52,63.52,0,0,0,74.39,0L397.64,164a39.67,39.67,0,0,0-13.46,4.59,39.23,39.23,0,0,0-16.29,17.21,57,57,0,1,0,65.53,70.56l33.76,11.46a63.85,63.85,0,0,0,10.6,50.68ZM394.14,243l.27.1,20,6.78a37,37,0,1,1-50.22-42.26C366,223,377.09,236.64,394.14,243ZM492.19,304a43.69,43.69,0,0,1-6.39-20.8,77.36,77.36,0,0,0,17.63,9.55Zm90.2-57.1c-9.48,15.54-27.86,31.44-47.68,31.44a72.76,72.76,0,0,1-10.43-.73h0c-21.6-3.14-33.21-15.41-37-20.27-.21-.3-1.08-1.44-1.2-1.63a10,10,0,0,0-5.52-4.58l-79.5-27c-12.69-4.76-19.4-15.62-16.32-26.46v0a19.49,19.49,0,0,1,23.93-13.42l89.59,28.39a10,10,0,1,0,6-19.06L433,171l-.62-.62,0,0-36.89-36.89,31.71-11.36.34-.13.11,0,.4-.17c21.43-9.86,41.81-4,49.8-.85a581.19,581.19,0,0,1,58.06,29.65c16.36,9.44,24.25,14,46.52,15.83Zm37.88-6H602.39V153.48h17.88Zm59.46,0H640.27V134.85h39.46Z"/></g></g></svg>