<svg xmlns="http://www.w3.org/2000/svg" viewBox="0 0 1801.23 676.86"><defs><style>.cls-1{fill:#4b2059;}.cls-2{fill:#fff;}</style></defs><title>Asset 5</title><g id="Layer_2" data-name="Layer 2"><g id="Layer_1-2" data-name="Layer 1"><rect class="cls-1" width="1801.23" height="676.86" rx="129.98"/><path class="cls-2" d="M836.33,237.21,869.82,289H844.74l-24.82-37.77-15.57,13.78-4.83,24H777.33l19.3-96.49h22.19L810,236.8l50-44.25h27Z"/><path class="cls-2" d="M900.84,285.45a37.89,37.89,0,0,1-16.27-14.75,42,42,0,0,1-5.65-21.91,58.57,58.57,0,0,1,7.51-29.57,54.29,54.29,0,0,1,21.09-20.75q13.58-7.58,31.08-7.58,14.48,0,25.09,5.24A38,38,0,0,1,980,210.88a42.16,42.16,0,0,1,5.65,21.92,58.64,58.64,0,0,1-7.51,29.56A54.15,54.15,0,0,1,957,283.11q-13.59,7.58-31.09,7.58Q911.45,290.69,900.84,285.45Zm45.62-18.88a33.84,33.84,0,0,0,12.27-13.65A41.58,41.58,0,0,0,963,234q0-11-6.89-17.58t-19.44-6.54a33.43,33.43,0,0,0-30.87,18.74,41.62,41.62,0,0,0-4.27,18.89q0,11,6.89,17.57t19.43,6.55A33.84,33.84,0,0,0,946.46,266.57Z"/><path class="cls-2" d="M1100,192.55,1080.72,289h-18.34l-36-60.38L1014.28,289H992.22l19.3-96.49H1030l36,60.51,12-60.51Z"/><path class="cls-2" d="M1115.31,287.66q-10.47-3-16.81-7.72l9.1-17.23a51.14,51.14,0,0,0,14.88,7.44,55.77,55.77,0,0,0,17,2.62q9.22,0,14.61-3t5.37-8.27q0-4.28-4.27-6.55A72.63,72.63,0,0,0,1141.5,250a139.23,139.23,0,0,1-15.3-5.31,27.83,27.83,0,0,1-10.27-7.65q-4.34-5.1-4.34-13.51a28.42,28.42,0,0,1,5.45-17.23q5.45-7.44,15.44-11.44a62.32,62.32,0,0,1,23.22-4,77.29,77.29,0,0,1,18.47,2.14,49.17,49.17,0,0,1,14.89,6.13l-8.41,17.1a39.62,39.62,0,0,0-12.13-5.59,52.7,52.7,0,0,0-14.06-1.86q-9.51,0-15,3.31t-5.52,8.55a6.85,6.85,0,0,0,2.35,5.3,17.49,17.49,0,0,0,5.92,3.45q3.58,1.32,10.07,3.1a115.41,115.41,0,0,1,15.16,5,27.56,27.56,0,0,1,10.13,7.45q4.2,4.89,4.2,12.88a28.1,28.1,0,0,1-5.51,17.3q-5.52,7.38-15.58,11.44a62.24,62.24,0,0,1-23.43,4.07A78.53,78.53,0,0,1,1115.31,287.66Z"/><path class="cls-2" d="M1208.49,281.66q-10.34-9-10.33-24.74a55.5,55.5,0,0,1,1.1-10.34l10.75-54h22.47l-10.75,53.62a45.15,45.15,0,0,0-.83,8.13q0,8.68,4.75,13t13.86,4.34q10.2,0,16.26-6.07t8.82-19.43l10.76-53.62h21.91l-10.89,55q-8.82,43.14-49.34,43.14Q1218.84,290.69,1208.49,281.66Z"/><path class="cls-2" d="M1319.45,192.55h22.47l-15.71,78.29h48.38l-3.72,18.2h-70.71Z"/><path class="cls-2" d="M1410,210.74h-30.88l3.72-18.19h84.08l-3.72,18.19h-30.74L1416.77,289h-22.33Z"/><path class="cls-2" d="M1523.46,268.36h-44.94L1466,289h-23.85l62.44-96.49h22.06L1550.34,289H1528Zm-3.72-17-8.13-37.22-22.75,37.22Z"/><path class="cls-2" d="M1572.12,287.66q-10.48-3-16.82-7.72l9.1-17.23a51.14,51.14,0,0,0,14.88,7.44,55.77,55.77,0,0,0,17,2.62q9.23,0,14.61-3t5.37-8.27q0-4.28-4.27-6.55A72.63,72.63,0,0,0,1598.3,250a139.23,139.23,0,0,1-15.3-5.31,27.72,27.72,0,0,1-10.26-7.65q-4.35-5.1-4.35-13.51a28.42,28.42,0,0,1,5.45-17.23q5.45-7.44,15.44-11.44a62.32,62.32,0,0,1,23.22-4A77.29,77.29,0,0,1,1631,193a49.17,49.17,0,0,1,14.89,6.13l-8.41,17.1a39.62,39.62,0,0,0-12.13-5.59,52.7,52.7,0,0,0-14.06-1.86q-9.51,0-15,3.31t-5.52,8.55a6.85,6.85,0,0,0,2.35,5.3,17.49,17.49,0,0,0,5.92,3.45q3.59,1.32,10.07,3.1a115.41,115.41,0,0,1,15.16,5,27.56,27.56,0,0,1,10.13,7.45q4.2,4.89,4.2,12.88a28.1,28.1,0,0,1-5.51,17.3q-5.52,7.38-15.58,11.44a62.24,62.24,0,0,1-23.43,4.07A78.41,78.41,0,0,1,1572.12,287.66Z"/><path class="cls-2" d="M1667.64,192.55h22.46L1670.81,289h-22.47Z"/><path class="cls-2" d="M901.74,367.41q14,11.28,14,31.49,0,17.27-8.14,30.11a52.41,52.41,0,0,1-23.15,19.72q-15,6.87-35.42,6.87h-30.6L811,493.46H779l27.47-137.33H862Q887.72,356.13,901.74,367.41Zm-26.78,55q8.64-7.26,8.63-20.79,0-9.81-6.57-14.72T858.09,382H833.17l-9.61,47.67h26.88Q866.33,429.7,875,422.44Z"/><path class="cls-2" d="M1047.41,431.66q-10.4,13.74-28.84,19.43l23.94,42.37H1009L987.38,455H960.31l-7.66,38.45h-32l27.47-137.33h55.92q25.5,0,39.63,11.18t14.12,31.39Q1057.81,417.93,1047.41,431.66Zm-30.5-9.22q8.73-7.26,8.73-20.79,0-9.81-6.67-14.72t-19-4.9H974.82l-9.61,47.67h27.07Q1008.18,429.7,1016.91,422.44Z"/><path class="cls-2" d="M1100.38,488.36a53.94,53.94,0,0,1-23.15-21q-8-13.53-8-31.19,0-23.35,10.69-42.09a77.11,77.11,0,0,1,30-29.52q19.32-10.8,44.24-10.8,20.59,0,35.71,7.46a54,54,0,0,1,23.15,21q8,13.54,8,31.2,0,23.34-10.69,42.08a77.14,77.14,0,0,1-30,29.53q-19.32,10.79-44.24,10.79Q1115.49,495.82,1100.38,488.36Zm64.94-26.88a48,48,0,0,0,17.46-19.42,59.19,59.19,0,0,0,6.09-26.88q0-15.69-9.81-25t-27.67-9.32q-15.11,0-26.48,7.26a48.08,48.08,0,0,0-17.46,19.42,59.19,59.19,0,0,0-6.08,26.88q0,15.7,9.81,25t27.66,9.31Q1153.95,468.74,1165.32,461.48Z"/><path class="cls-2" d="M1257.93,356.13h57.48q21,0,36.2,7T1375,383q8.15,12.94,8.15,30.41,0,23.94-10.79,42.08a73.08,73.08,0,0,1-30.12,28.06q-19.32,9.9-44.63,9.9h-67.1Zm40.61,111.24q16.08,0,28-6.77A45.55,45.55,0,0,0,1344.64,442a56.33,56.33,0,0,0,6.28-26.78q0-15.49-10-24.23t-29-8.73h-27.27l-17.07,85.15Z"/><path class="cls-2" d="M1416.64,483q-14.72-12.86-14.71-35.22A79.14,79.14,0,0,1,1403.5,433l15.3-76.91h32l-15.3,76.32A64.87,64.87,0,0,0,1434.3,444q0,12.36,6.77,18.54t19.72,6.18q14.51,0,23.15-8.63t12.55-27.66l15.31-76.32H1543l-15.5,78.28q-12.56,61.41-70.23,61.41Q1431.36,495.82,1416.64,483Z"/><path class="cls-2" d="M1631.08,419.7l47.68,73.76h-35.71l-35.32-53.75-22.17,19.62-6.86,34.13h-31.59l27.47-137.33h31.58l-12.55,63,71.22-63h38.45Z"/><path class="cls-2" d="M149.42,277.23v47.18a43.25,43.25,0,0,0,43.25,43.25h23.59a11.79,11.79,0,0,0,11.79-11.79V234H192.67A43.24,43.24,0,0,0,149.42,277.23Z"/><path class="cls-2" d="M426.6,416.41c0,9,8,16.28,18,16.28h29.93c9.92,0,18-7.29,18-16.28s-8-16.28-18-16.28H444.56C434.64,400.13,426.6,407.42,426.6,416.41Z"/><path class="cls-2" d="M582.84,391.25v2.36A11.81,11.81,0,0,1,571,405.4H517.83a47,47,0,0,1-.4,23.59H571a35.43,35.43,0,0,0,35.39-35.38v-2.36Z"/><path class="cls-2" d="M610.36,234H575V355.87a11.79,11.79,0,0,0,11.8,11.79h23.59a43.25,43.25,0,0,0,43.25-43.25V277.23A43.25,43.25,0,0,0,610.36,234Z"/><path class="cls-2" d="M557.93,469.29a134.26,134.26,0,0,0,8.88-48.13v-150c0-94.64-81-174.78-181.16-165.23-83.46,8-148.84,83.37-148.84,171.68v53.55a164,164,0,0,0,21.61,81.57,45,45,0,0,0-21.61,38.43,104.89,104.89,0,0,0,1.93,20c-37.84,21.89-61.93,63.52-61.93,108.05v37.92h450V581.05C626.81,533.6,599.85,490,557.93,469.29ZM479.7,442.71H463c-13.66,20.91-36.08,23.45-61.14,23.45a134.32,134.32,0,0,1-42.31-6.8C344.25,452,333,437,328.71,406.63A105.29,105.29,0,0,0,417.28,435,26.31,26.31,0,0,1,412,405.48,75.07,75.07,0,0,1,328.29,346a346,346,0,0,1,11.09-59.83H464.24A346,346,0,0,1,475.33,346a74.65,74.65,0,0,1-27.08,44.12H479.7a26.31,26.31,0,0,1,25.17,18.64,252.26,252.26,0,0,0,1.94-32.59c0-46.55-10.32-98-27.61-137.67-20.34-46.64-47.82-72.33-77.39-72.33s-57.05,25.69-77.39,72.33c-17.29,39.66-27.61,91.12-27.61,137.67,0,16.65,1.31,31.41,3.95,44.41a134.44,134.44,0,0,1-33.95-89.41V277.61c0-73,53.45-135.31,121.69-141.81,81.61-7.79,148.31,57.45,148.31,135.36v150a105.12,105.12,0,0,1-105,105h-90a75.09,75.09,0,0,1-75-75,15,15,0,0,1,8.9-13.7,165.43,165.43,0,0,0,75,50.59c17,6.94,35.47,8.11,51.09,8.11,51.16,0,84.33-17.26,97.95-62.74A26.26,26.26,0,0,1,479.7,442.71ZM349.54,256.16c.78-1.92,1.57-3.82,2.38-5.68,14.83-34,33.48-54.32,49.89-54.32s35.06,20.31,49.89,54.32c.81,1.86,1.6,3.76,2.38,5.68Zm247.27,331h-390v-7.92A95.47,95.47,0,0,1,249,500.13a105.08,105.08,0,0,0,92.85,56h90a135,135,0,0,0,112.34-60.22c32,15.57,52.66,48.84,52.66,85.11Z"/><path class="cls-2" d="M227.76,234C237.68,146.73,312,78.71,401.81,78.71S566,146.73,575.87,234H595C585,136.23,502.17,59.71,401.81,59.71S218.64,136.23,208.63,234Z"/></g></g></svg>