<svg xmlns="http://www.w3.org/2000/svg" viewBox="0 0 1801.23 676.86"><defs><style>.cls-1{fill:#4b2059;}.cls-2{fill:#fff;}</style></defs><title>Asset 6</title><g id="Layer_2" data-name="Layer 2"><g id="Layer_1-2" data-name="Layer 1"><rect class="cls-1" width="1801.23" height="676.86" rx="129.98"/><path class="cls-2" d="M595,405.62A84.33,84.33,0,1,0,679.29,490,84.43,84.43,0,0,0,595,405.62Zm0,126.5A42.17,42.17,0,1,1,637.12,490,42.21,42.21,0,0,1,595,532.12Z"/><path class="cls-2" d="M306.83,405.62A84.33,84.33,0,1,0,391.16,490,84.43,84.43,0,0,0,306.83,405.62Zm0,126.5A42.17,42.17,0,1,1,349,490,42.21,42.21,0,0,1,306.83,532.12Z"/><path class="cls-2" d="M651.75,164.25a21.1,21.1,0,0,0-18.84-11.61h-111V194.8h98L677.31,309,715,290Z"/><rect class="cls-2" x="372.19" y="469.58" width="159.52" height="42.16"/><path class="cls-2" d="M243.59,469.58H170.5a21.08,21.08,0,0,0,0,42.16h73.09a21.08,21.08,0,0,0,0-42.16Z"/><path class="cls-2" d="M754.27,340.69,712.8,287.28a21,21,0,0,0-16.64-8.15H543V131.55a21.08,21.08,0,0,0-21.09-21.08H170.5a21.09,21.09,0,0,0,0,42.17H500.79V300.21a21.08,21.08,0,0,0,21.08,21.08h164l30.7,39.55V469.57H658.21a21.09,21.09,0,1,0,0,42.17h79.41a21.08,21.08,0,0,0,21.08-21.09v-137A21.1,21.1,0,0,0,754.27,340.69Z"/><path class="cls-2" d="M242.18,362.76h-97a21.08,21.08,0,1,0,0,42.16h97a21.08,21.08,0,0,0,0-42.16Z"/><path class="cls-2" d="M290.67,279.83H110.77a21.09,21.09,0,0,0,0,42.17h179.9a21.09,21.09,0,0,0,0-42.17Z"/><path class="cls-2" d="M325.11,196.91H145.2a21.08,21.08,0,1,0,0,42.16H325.11a21.08,21.08,0,0,0,0-42.16Z"/><path class="cls-2" d="M963.72,209.8h33.09l-13,64.39a87,87,0,0,1-27.5,14.09,107.44,107.44,0,0,1-32.42,4.92q-23.48,0-40.91-8.5a63.33,63.33,0,0,1-26.94-23.92q-9.51-15.43-9.51-35.55,0-26.61,12.3-48.07a87,87,0,0,1,34.66-33.65q22.35-12.18,51.42-12.19,22.35,0,38.79,6.93a63.06,63.06,0,0,1,26.5,20.35l-25.94,21a47.42,47.42,0,0,0-17.66-13.31q-9.84-4.12-23.25-4.13-17.89,0-31.53,7.93a55.1,55.1,0,0,0-21.13,21.8A64.4,64.4,0,0,0,883.23,223q0,18.12,11.74,28.73t33.65,10.62a60.88,60.88,0,0,0,25.93-5.59Z"/><path class="cls-2" d="M1158.46,220.09q-11.85,15.65-32.86,22.13l27.27,48.29h-38.23l-24.59-43.82h-30.86l-8.72,43.82H1014l31.3-156.5h63.72q29.07,0,45.16,12.74t16.1,35.77Q1170.31,204.44,1158.46,220.09Zm-34.76-10.51q9.94-8.28,9.94-23.7,0-11.17-7.6-16.77t-21.68-5.59h-28.62l-11,54.33h30.86Q1113.74,217.85,1123.7,209.58Z"/><path class="cls-2" d="M1289.7,257h-72.89l-20.34,33.53h-38.68L1259.07,134h35.77l38.46,156.5h-36.22Zm-6-27.5-13.2-60.37-36.89,60.37Z"/><path class="cls-2" d="M1399.48,163.52H1349.4l6-29.51h136.38l-6,29.51h-49.86l-25.49,127h-36.22Z"/><path class="cls-2" d="M1511.27,134h36.45l-31.3,156.5H1480Z"/><path class="cls-2" d="M1572.31,288.28q-17-4.92-27.28-12.52l14.76-27.95a83.1,83.1,0,0,0,24.15,12.07,90.3,90.3,0,0,0,27.5,4.25q15,0,23.7-4.92t8.72-13.41c0-4.62-2.32-8.16-6.93-10.62s-12-5.11-22.14-7.94a224.55,224.55,0,0,1-24.82-8.61,44.85,44.85,0,0,1-16.65-12.41q-7-8.26-7-21.91a46.08,46.08,0,0,1,8.83-27.95q8.84-12.06,25.05-18.55t37.67-6.49a125.09,125.09,0,0,1,30,3.47,79.33,79.33,0,0,1,24.15,10l-13.64,27.72a64.31,64.31,0,0,0-19.68-9.05,85.1,85.1,0,0,0-22.8-3q-15.43,0-24.37,5.36t-9,13.87a11.15,11.15,0,0,0,3.8,8.6,28.47,28.47,0,0,0,9.62,5.59q5.8,2.13,16.32,5a184.87,184.87,0,0,1,24.59,8.16,44.74,44.74,0,0,1,16.44,12.07q6.81,7.93,6.82,20.9,0,16.11-8.95,28.06t-25.26,18.56q-16.32,6.6-38,6.6A127.21,127.21,0,0,1,1572.31,288.28Z"/><path class="cls-2" d="M865.46,506.44a56,56,0,0,1-24.06-21.82Q833,470.55,833,452.19q0-24.27,11.11-43.74a80.2,80.2,0,0,1,31.2-30.69q20.08-11.22,46-11.22,21.42,0,37.12,7.75a56.16,56.16,0,0,1,24.06,21.82q8.36,14.07,8.36,32.43,0,24.27-11.11,43.74A80.13,80.13,0,0,1,948.57,503q-20.1,11.22-46,11.22Q881.16,514.19,865.46,506.44ZM933,478.5a50.12,50.12,0,0,0,18.15-20.19,61.65,61.65,0,0,0,6.32-27.94q0-16.31-10.2-26t-28.75-9.69q-15.71,0-27.53,7.55a50,50,0,0,0-18.15,20.19,61.52,61.52,0,0,0-6.33,27.94q0,16.32,10.2,26T905.43,486Q921.14,486,933,478.5Z"/><path class="cls-2" d="M1160.14,369l-28.55,142.75h-27.12l-53.23-89.32-17.94,89.32h-32.63L1029.22,369h27.33l53.22,89.52L1127.51,369Z"/><path class="cls-2" d="M1276.79,438.12H1307l-11.82,58.73a79.46,79.46,0,0,1-25.09,12.85,98.07,98.07,0,0,1-29.57,4.49q-21.4,0-37.32-7.75a57.87,57.87,0,0,1-24.57-21.82q-8.67-14.07-8.67-32.43,0-24.27,11.22-43.84a79.38,79.38,0,0,1,31.61-30.7q20.38-11.1,46.9-11.11,20.4,0,35.38,6.32a57.42,57.42,0,0,1,24.17,18.56l-23.66,19.17a43.2,43.2,0,0,0-16.11-12.13q-9-3.78-21.2-3.78-16.32,0-28.76,7.24a50.22,50.22,0,0,0-19.27,19.89,58.6,58.6,0,0,0-6.83,28.34q0,16.52,10.7,26.21t30.7,9.68a55.59,55.59,0,0,0,23.65-5.09Z"/><path class="cls-2" d="M1410,435.06l49.55,76.68H1422.4l-36.71-55.88-23,20.4-7.14,35.48h-32.83L1351.23,369h32.83l-13,65.46L1445,369h40Z"/><path class="cls-2" d="M1502.13,369h33.24l-28.55,142.75h-33.24Z"/><path class="cls-2" d="M1672.21,447.5q-10.82,14.28-30,20.19l24.88,44.05h-34.87l-22.43-40h-28.14l-8,40h-33.24L1569,369h58.12q26.5,0,41.2,11.62T1683,413.24Q1683,433.24,1672.21,447.5Zm-31.71-9.58q9.07-7.55,9.07-21.62,0-10.2-6.93-15.3t-19.78-5.09h-26.1l-10,49.55h28.15Q1631.43,445.46,1640.5,437.92Z"/></g></g></svg>